<svg xmlns="http://www.w3.org/2000/svg" viewBox="0 0 32 32" shape-rendering="crispEdges">
  <rect x="13" y="2" width="1" height="3" fill="#9aa5c4"/>
  <rect x="18" y="2" width="1" height="3" fill="#9aa5c4"/>
  <rect x="12" y="1" width="2" height="2" fill="#7fd99a"/>
  <rect x="18" y="1" width="2" height="2" fill="#7fd99a"/>
  <rect x="9" y="5" width="14" height="10" rx="2" fill="#c9d2ea"/>
  <rect x="9" y="5" width="14" height="10" rx="2" fill="none" stroke="#5d6688"/>
  <rect x="12" y="8" width="3" height="3" fill="#2a3150"/>
  <rect x="17" y="8" width="3" height="3" fill="#2a3150"/>
  <rect x="13" y="9" width="1" height="1" fill="#7fd99a"/>
  <rect x="18" y="9" width="1" height="1" fill="#7fd99a"/>
  <rect x="14" y="12" width="4" height="1" fill="#5d6688"/>
  <rect x="10" y="16" width="12" height="9" rx="1" fill="#aab4d4" stroke="#5d6688"/>
  <rect x="14" y="18" width="4" height="4" fill="#7fb2ff"/>
  <rect x="7" y="16" width="2" height="7" fill="#9aa5c4"/>
  <rect x="23" y="16" width="2" height="7" fill="#9aa5c4"/>
  <rect x="11" y="26" width="3" height="4" fill="#9aa5c4"/>
  <rect x="18" y="26" width="3" height="4" fill="#9aa5c4"/>
</svg>
